<svg xmlns="http://www.w3.org/2000/svg" height="32" viewBox="0 0 846 256" fill="currentColor">
<path d="M127.766 0C163.571 0 194.055 12.2089 219.195 36.6151C231.228 48.3709 240.376 61.8066 246.624 76.9105C252.868 92.0184 256 108.052 256 125.02C256 142.136 252.908 158.173 246.744 173.125C240.572 188.08 231.464 201.293 219.431 212.752C206.939 224.805 192.767 234.037 176.915 240.436C161.071 246.836 144.686 250.035 127.774 250.035C110.862 250.035 94.6695 246.879 79.2012 240.546C63.737 234.224 49.8688 225.071 37.6006 213.092C25.3324 201.114 16.0003 187.604 9.60015 172.57C3.20005 157.536 0 141.69 0 125.02C0 108.498 3.23605 92.6122 9.71215 77.3559C16.1883 62.0996 25.6004 48.4451 37.9406 36.3885C62.321 12.1347 92.2614 0 127.766 0ZM128.23 22.5504C98.9735 22.5504 74.3612 32.5246 54.3969 52.4653C44.3367 62.4395 36.6046 73.6366 31.1965 86.0643C25.7804 98.492 23.0804 111.478 23.0804 125.024C23.0804 138.42 25.7804 151.332 31.1965 163.752C36.6086 176.188 44.3367 187.276 54.3969 197.023C64.453 206.775 75.8012 214.209 88.4574 219.351C101.102 224.485 114.362 227.051 128.23 227.051C141.942 227.051 155.23 224.453 168.123 219.242C180.999 214.026 192.607 206.517 202.975 196.695C222.935 177.645 232.912 153.759 232.912 125.027C232.912 111.185 230.32 98.0896 225.14 85.7361C219.967 73.3826 212.419 62.3731 202.523 52.6919C181.939 32.5989 157.182 22.5504 128.23 22.5504ZM126.626 104.262L109.478 112.971C107.646 109.255 105.402 106.646 102.738 105.157C100.07 103.673 97.5935 102.926 95.3055 102.926C83.8813 102.926 78.1612 110.291 78.1612 125.027C78.1612 131.724 79.6092 137.076 82.5013 141.096C85.3973 145.117 89.6654 147.129 95.3055 147.129C102.774 147.129 108.03 143.554 111.082 136.412L126.85 144.226C123.498 150.332 118.85 155.13 112.906 158.627C106.97 162.127 100.414 163.873 93.2495 163.873C81.8213 163.873 72.5971 160.455 65.589 153.602C58.5809 146.757 55.0769 137.233 55.0769 125.031C55.0769 113.123 58.6209 103.676 65.705 96.6793C72.7891 89.686 81.7413 86.1854 92.5654 86.1854C108.418 86.1776 119.766 92.2059 126.626 104.262ZM200.455 104.262L183.539 112.971C181.711 109.255 179.459 106.646 176.795 105.157C174.123 103.673 171.567 102.926 169.139 102.926C157.71 102.926 151.99 110.291 151.99 125.027C151.99 131.724 153.442 137.076 156.334 141.096C159.226 145.117 163.491 147.129 169.139 147.129C176.599 147.129 181.859 143.554 184.903 136.412L200.903 144.226C197.403 150.332 192.675 155.13 186.739 158.627C180.795 162.127 174.319 163.873 167.311 163.873C155.726 163.873 146.474 160.455 139.546 153.602C132.602 146.757 129.138 137.233 129.138 125.031C129.138 113.123 132.678 103.676 139.77 96.6793C146.85 89.686 155.802 86.1854 166.623 86.1854C182.471 86.1776 193.755 92.2059 200.455 104.262Z" fill="currentColor"></path>
<g clip-path="url(#clip0_23_98)">
<path d="M417.75 9.49437e-05C348.625 1.75009 293 58.4532 293 128C293 198.656 350.344 256 421 256C491.656 256 549 198.656 549 128C549 57.3438 491.656 9.49437e-05 421 9.49437e-05C419.891 9.49437e-05 418.844 -0.0311551 417.75 9.49437e-05ZM417.625 22.0001C418.766 21.9688 419.859 22.0001 421 22.0001C479.516 22.0001 527 69.4845 527 128C527 186.516 479.516 234 421 234C362.484 234 315 186.516 315 128C315 70.6251 360.688 23.8126 417.625 22.0001Z" fill="currentColor"></path>
<path d="M439.5 63.75C439.5 73.9531 431.219 82.25 421 82.25C410.781 82.25 402.5 73.9531 402.5 63.75C402.5 53.5313 410.781 45.25 421 45.25C431.219 45.25 439.5 53.5313 439.5 63.75Z" fill="currentColor"></path>
<path d="M401.859 210.75H440.141V149.25H451.719C451.719 149.25 451.703 105.281 451.719 98.3593C451.703 96.5312 451.875 92.9062 449.234 90.2499C446.578 87.6093 443 87.7655 441.125 87.7655C439.234 87.7812 402.766 87.7812 400.875 87.7655C399 87.7655 395.422 87.6093 392.766 90.2499C390.125 92.9062 390.297 96.5312 390.281 98.3593C390.297 105.281 390.281 149.25 390.281 149.25H401.859V210.75Z" fill="currentColor"></path>
</g>
<path d="M710.75 0.0123692C641.618 1.7657 586 58.4576 586 128.006C586 198.659 643.344 256 714 256C784.656 256 842 198.659 842 128.006C842 57.3536 784.656 0.0123692 714 0.0123692C712.896 0.0123692 711.847 -0.0154615 710.75 0.0123692ZM710.625 22.0113C711.759 21.9753 712.857 22.0113 714 22.0113C772.512 22.0113 820 69.497 820 128.006C820 186.515 772.512 234.001 714 234.001C655.488 234.001 608 186.515 608 128.006C608 70.6398 653.692 23.8164 710.625 22.0113Z" fill="currentColor"></path>
<path d="M658.463 107.145H647.5L672.375 135.019L697.25 107.145H688.275C690.219 93.5468 702.182 84.8008 716 85.8964C716.546 85.9397 717.071 85.8964 717.625 85.8964C740.135 85.8964 749.012 102.919 749.75 128.019C750.52 154.215 735.336 170.499 717.625 170.142C698.931 169.773 691.849 160.833 689.125 147.268H655.75C661.243 178.512 684.245 196.834 716.875 196.891C753.813 196.956 780.5 166.055 780.5 128.019C780.5 87.4018 753.823 59.1477 716.875 59.1477C715.778 59.1477 714.708 59.0881 713.625 59.1477C713.363 59.1621 713.137 59.1434 712.875 59.1477C689.786 59.5316 658.463 75.7059 658.463 107.145Z" fill="currentColor"></path>
<defs>
<clipPath id="clip0_23_98">
<rect width="256" height="256" fill="currentColor" transform="translate(293)"></rect>
</clipPath>
</defs>
</svg>