<svg xmlns="http://www.w3.org/2000/svg" width="256" height="256" viewBox="0 0 256 256" fill="none">
<mask id="mask0_23_2" style="mask-type:alpha" maskUnits="userSpaceOnUse" x="1" y="0" width="254" height="256">
<path opacity="0.65" d="M92.3013 33.043C91.5549 42.556 93.0454 51.5591 98.2541 59.6924C101.757 65.0956 107.103 69.0433 113.298 70.8021C114.247 70.9974 115.228 70.9794 116.169 70.7493C117.111 70.5193 117.99 70.083 118.742 69.4719C125.771 62.7807 129.161 54.6013 127.971 44.5242C125.861 26.6171 115.212 14.4045 101.659 2.76184C96.3887 12.8748 93.1285 22.5413 92.3013 33.043Z" fill="url(#paint0_linear_23_2)"/>
<path opacity="0.65" d="M73.416 42.5422C74.6631 52.0022 77.9937 60.4988 84.7784 67.3677C89.3283 71.9247 95.3778 74.675 101.803 75.1076C102.772 75.1011 103.728 74.8795 104.601 74.4587C105.474 74.0379 106.242 73.4285 106.851 72.6745C112.336 64.6635 113.951 55.9626 110.694 46.3527C104.907 29.2786 91.9518 19.5441 76.2736 10.9724C73.2199 21.9644 72.0385 32.097 73.416 42.5422Z" fill="url(#paint1_linear_23_2)"/>
<path opacity="0.65" d="M56.9165 55.7597C60.1029 64.7582 65.127 72.3723 73.1922 77.6791C78.5904 81.1906 85.0798 82.623 91.4546 81.71C92.4013 81.5021 93.2899 81.0867 94.0565 80.4935C94.823 79.9004 95.4482 79.1444 95.8869 78.2802C99.5856 69.3047 99.356 60.4573 94.1726 51.7346C84.9618 36.234 70.2666 29.409 53.1486 24.2856C52.4472 35.6734 53.3978 45.8255 56.9165 55.7597Z" fill="url(#paint2_linear_23_2)"/>
<path opacity="0.65" d="M43.5215 72.1184C48.5087 80.254 55.0061 86.6603 63.9988 90.1766C70.009 92.4888 76.6542 92.5404 82.6996 90.322C83.5825 89.922 84.3655 89.3308 84.9919 88.5912C85.6184 87.8516 86.0727 86.982 86.322 86.0454C88.0744 76.4966 86.0106 67.8903 79.1267 60.4342C66.898 47.1868 51.101 43.5666 33.292 42.113C34.9786 53.4004 38.0208 63.1384 43.5215 72.1184Z" fill="url(#paint3_linear_23_2)"/>
<path opacity="0.65" d="M33.8306 90.9034C40.3995 97.8253 48.0875 102.74 57.6155 104.309C63.9753 105.322 70.4866 103.991 75.939 100.564C76.7192 99.9891 77.362 99.2479 77.8209 98.3942C78.2797 97.5405 78.5433 96.5956 78.5924 95.6276C78.3213 85.923 74.5131 77.934 66.2299 72.0746C51.5104 61.6594 35.3119 61.4021 17.5872 63.6829C21.5777 74.3715 26.5776 83.2639 33.8306 90.9034Z" fill="url(#paint4_linear_23_2)"/>
<path opacity="0.65" d="M28.2516 111.294C36.116 116.698 44.6589 119.909 54.3034 119.462C60.7346 119.13 66.8266 116.475 71.4467 111.989C72.0903 111.264 72.565 110.406 72.8363 109.476C73.1077 108.545 73.1689 107.566 73.0157 106.609C70.7326 97.1736 65.3474 90.1513 56.0258 86.1412C39.464 79.0139 23.5631 82.1311 6.70361 88.0493C12.8341 97.6719 19.5692 105.33 28.2516 111.294Z" fill="url(#paint5_linear_23_2)"/>
<path opacity="0.65" d="M27.0346 132.4C35.8509 136.051 44.8736 137.414 54.2159 134.973C60.4375 133.311 65.8441 129.447 69.4314 124.099C69.9104 123.256 70.1963 122.318 70.2683 121.351C70.3403 120.385 70.1967 119.415 69.8479 118.51C65.6532 109.755 58.9251 104.005 48.9737 102.021C31.2905 98.4933 16.3852 104.848 1.12354 114.135C9.11721 122.282 17.3024 128.371 27.0346 132.4Z" fill="url(#paint6_linear_23_2)"/>
<path opacity="0.65" d="M30.2324 153.297C39.6151 155.034 48.7243 154.493 57.3537 150.162C63.0938 147.243 67.579 142.339 69.9758 136.362C70.2692 135.438 70.3537 134.461 70.2232 133.501C70.0927 132.541 69.7505 131.621 69.2213 130.809C63.2973 123.118 55.5205 118.892 45.3753 119.02C27.3448 119.251 14.087 128.561 1.09106 140.824C10.6018 147.124 19.8714 151.385 30.2324 153.297Z" fill="url(#paint7_linear_23_2)"/>
<path opacity="0.65" d="M37.7047 173.074C47.2431 172.822 56.0409 170.398 63.5824 164.368C68.5889 160.319 71.955 154.589 73.055 148.245C73.1501 147.28 73.0296 146.307 72.7024 145.395C72.3752 144.482 71.8494 143.654 71.163 142.97C63.7693 136.678 55.2841 134.162 45.3869 136.394C27.8018 140.366 16.7693 152.234 6.60449 166.93C17.2181 171.112 27.1742 173.35 37.7047 173.074Z" fill="url(#paint8_linear_23_2)"/>
<path opacity="0.65" d="M49.1247 190.863C58.4024 188.633 66.5045 184.434 72.627 176.967C76.6826 171.967 78.7852 165.664 78.5441 159.23C78.4363 158.267 78.116 157.34 77.6062 156.515C77.0965 155.691 76.41 154.991 75.5965 154.464C67.0594 149.849 58.234 149.15 49.0174 153.393C32.6355 160.934 24.3142 174.835 17.4292 191.323C28.6819 193.208 38.8826 193.324 49.1247 190.863Z" fill="url(#paint9_linear_23_2)"/>
<path opacity="0.65" d="M63.9955 205.889C72.6075 201.78 79.6586 195.988 84.0944 187.411C87.0224 181.676 87.7685 175.072 86.1941 168.828C85.8886 167.908 85.3826 167.068 84.7126 166.368C84.0426 165.667 83.2254 165.125 82.3201 164.779C73.0067 162.039 64.232 163.191 56.0998 169.259C41.6457 180.038 36.3954 195.367 33.0879 212.927C44.486 212.434 54.4882 210.427 63.9955 205.889Z" fill="url(#paint10_linear_23_2)"/>
<path opacity="0.65" d="M81.6634 217.496C89.2325 211.686 94.9304 204.553 97.4823 195.243C99.1536 189.024 98.5104 182.41 95.6722 176.629C95.1823 175.793 94.5127 175.076 93.7118 174.531C92.9109 173.985 91.9988 173.624 91.0414 173.474C81.3611 172.73 73.0179 175.682 66.3244 183.307C54.4279 196.857 52.4805 212.943 52.8947 230.806C63.9409 227.954 73.3086 223.911 81.6634 217.496Z" fill="url(#paint11_linear_23_2)"/>
<path opacity="0.65" d="M101.36 225.175C107.556 217.919 111.641 209.759 112.204 200.12C112.546 193.689 110.542 187.353 106.563 182.289C105.909 181.572 105.104 181.01 104.206 180.643C103.308 180.275 102.34 180.113 101.371 180.166C91.7487 181.45 84.2015 186.072 79.2397 194.923C70.4211 210.651 71.8563 226.789 75.9794 244.176C86.1997 239.089 94.521 233.187 101.36 225.175Z" fill="url(#paint12_linear_23_2)"/>
<path opacity="0.65" d="M122.223 228.592C126.774 220.205 129.074 211.375 127.622 201.827C126.618 195.466 123.338 189.686 118.392 185.561C117.604 184.996 116.701 184.614 115.747 184.441C114.794 184.269 113.814 184.31 112.878 184.562C103.733 187.819 97.3105 193.906 94.2971 203.597C88.9407 220.814 93.7019 236.302 101.348 252.452C110.286 245.354 117.198 237.85 122.223 228.592Z" fill="url(#paint13_linear_23_2)"/>
<path opacity="0.65" d="M143.339 227.597C146.048 218.447 146.461 209.331 143.056 200.295C140.753 194.282 136.345 189.309 130.651 186.3C129.763 185.912 128.8 185.726 127.831 185.755C126.863 185.784 125.913 186.029 125.05 186.47C116.782 191.557 111.767 198.85 110.834 208.953C109.173 226.908 117.051 241.068 127.888 255.275C135.149 246.474 140.35 237.697 143.339 227.597Z" fill="url(#paint14_linear_23_2)"/>
<path opacity="0.65" d="M163.787 222.232C164.535 212.719 163.043 203.717 157.835 195.583C154.332 190.179 148.986 186.23 142.791 184.472C141.842 184.276 140.861 184.295 139.919 184.525C138.978 184.755 138.099 185.192 137.347 185.803C130.318 192.494 126.928 200.674 128.118 210.75C130.228 228.658 140.877 240.869 154.43 252.512C159.701 242.4 162.964 232.734 163.787 222.232Z" fill="url(#paint15_linear_23_2)"/>
<path opacity="0.65" d="M182.674 212.734C181.427 203.274 178.096 194.777 171.312 187.908C166.761 183.351 160.711 180.601 154.286 180.169C153.317 180.175 152.362 180.396 151.489 180.817C150.616 181.238 149.847 181.847 149.239 182.602C143.754 190.613 142.138 199.313 145.396 208.923C151.182 225.998 164.137 235.732 179.815 244.304C182.87 233.311 184.052 223.177 182.674 212.734Z" fill="url(#paint16_linear_23_2)"/>
<path opacity="0.65" d="M199.172 199.516C195.986 190.518 190.962 182.904 182.897 177.597C177.498 174.086 171.009 172.653 164.634 173.566C163.688 173.774 162.799 174.189 162.033 174.782C161.266 175.375 160.641 176.131 160.203 176.995C156.503 185.971 156.733 194.819 161.916 203.54C171.127 219.042 185.823 225.867 202.94 230.997C203.642 219.603 202.691 209.445 199.172 199.516Z" fill="url(#paint17_linear_23_2)"/>
<path opacity="0.65" d="M212.563 183.157C207.576 175.022 201.077 168.621 192.084 165.1C186.074 162.787 179.429 162.735 173.384 164.953C172.501 165.353 171.718 165.944 171.092 166.684C170.466 167.424 170.012 168.293 169.762 169.23C168.01 178.778 170.074 187.385 176.958 194.841C189.186 208.088 204.983 211.71 222.792 213.162C221.11 201.876 218.069 192.138 212.563 183.157Z" fill="url(#paint18_linear_23_2)"/>
<path opacity="0.65" d="M222.258 164.372C215.69 157.45 208.002 152.535 198.475 150.966C192.115 149.954 185.604 151.285 180.151 154.712C179.371 155.287 178.728 156.028 178.269 156.881C177.81 157.735 177.547 158.68 177.498 159.647C177.77 169.352 181.577 177.341 189.86 183.2C204.58 193.616 220.778 193.873 238.503 191.592C234.513 180.903 229.511 172.011 222.258 164.372Z" fill="url(#paint19_linear_23_2)"/>
<path opacity="0.65" d="M227.837 143.981C219.973 138.577 211.43 135.366 201.786 135.813C195.354 136.145 189.263 138.801 184.642 143.286C183.998 144.011 183.524 144.869 183.252 145.799C182.98 146.73 182.919 147.709 183.072 148.666C185.355 158.101 190.742 165.125 200.062 169.134C216.625 176.261 232.526 173.145 249.386 167.229C243.259 157.603 236.52 149.945 227.837 143.981Z" fill="url(#paint20_linear_23_2)"/>
<path opacity="0.65" d="M229.054 122.876C220.238 119.226 211.215 117.861 201.873 120.303C195.651 121.965 190.245 125.829 186.659 131.178C186.18 132.02 185.894 132.958 185.822 133.925C185.75 134.891 185.893 135.862 186.242 136.766C190.437 145.52 197.165 151.271 207.115 153.254C224.799 156.782 239.704 150.427 254.966 141.141C246.973 132.995 238.788 126.904 229.054 122.876Z" fill="url(#paint21_linear_23_2)"/>
<path opacity="0.65" d="M225.856 101.979C216.475 100.241 207.366 100.782 198.735 105.113C192.995 108.032 188.51 112.936 186.113 118.913C185.82 119.837 185.735 120.814 185.866 121.775C185.996 122.735 186.338 123.655 186.868 124.467C192.792 132.157 200.568 136.383 210.714 136.255C228.744 136.024 242.002 126.714 254.999 114.451C245.487 108.151 236.215 103.896 225.856 101.979Z" fill="url(#paint22_linear_23_2)"/>
<path opacity="0.65" d="M218.384 82.2025C208.846 82.454 200.048 84.8778 192.508 90.908C187.5 94.9565 184.132 100.686 183.03 107.03C182.936 107.995 183.056 108.968 183.383 109.88C183.711 110.792 184.236 111.621 184.922 112.305C192.316 118.597 200.801 121.113 210.699 118.881C228.287 114.911 239.32 103.043 249.483 88.3469C238.87 84.1591 228.914 81.9245 218.384 82.2025Z" fill="url(#paint23_linear_23_2)"/>
<path opacity="0.65" d="M206.964 64.4132C197.687 66.6421 189.584 70.8425 183.462 78.309C179.405 83.3104 177.303 89.6147 177.545 96.0499C177.653 97.013 177.973 97.9402 178.483 98.7644C178.992 99.5886 179.679 100.289 180.493 100.816C189.03 105.43 197.855 106.129 207.072 101.886C223.453 94.3459 231.775 80.4444 238.66 63.9564C227.414 62.0667 217.206 61.9513 206.964 64.4132Z" fill="url(#paint24_linear_23_2)"/>
<path opacity="0.65" d="M192.095 49.3857C183.483 53.4951 176.432 59.2876 171.995 67.8638C169.067 73.5993 168.321 80.2027 169.895 86.4469C170.201 87.3666 170.707 88.207 171.377 88.9073C172.047 89.6076 172.864 90.1503 173.769 90.4962C183.082 93.2373 191.857 92.0837 199.99 86.0166C214.443 75.2357 219.695 59.9071 223.002 42.3473C211.609 42.8411 201.601 44.8496 192.095 49.3857Z" fill="url(#paint25_linear_23_2)"/>
<path opacity="0.65" d="M174.425 37.7799C166.856 43.5897 161.158 50.7216 158.607 60.0328C156.936 66.252 157.579 72.8662 160.417 78.647C160.907 79.4831 161.577 80.1999 162.378 80.7455C163.179 81.2912 164.091 81.6521 165.049 81.8023C174.728 82.5464 183.071 79.5953 189.764 71.9696C201.661 58.42 203.608 42.3346 203.194 24.4702C192.148 27.3209 182.781 31.3645 174.425 37.7799Z" fill="url(#paint26_linear_23_2)"/>
<path opacity="0.65" d="M154.734 30.0999C148.537 37.3564 144.452 45.5162 143.889 55.155C143.547 61.5856 145.552 67.9217 149.53 72.9859C150.183 73.7025 150.988 74.2647 151.886 74.6318C152.784 74.9989 153.752 75.1618 154.721 75.1086C164.344 73.8246 171.891 69.2019 176.854 60.3522C185.672 44.6245 184.237 28.486 180.114 11.0992C169.889 16.1857 161.569 22.0878 154.734 30.0999Z" fill="url(#paint27_linear_23_2)"/>
<path opacity="0.65" d="M133.866 26.6829C129.315 35.07 127.015 43.9001 128.467 53.4477C129.471 59.8091 132.751 65.5895 137.696 69.7143C138.484 70.2786 139.387 70.6608 140.341 70.8334C141.294 71.006 142.274 70.9646 143.21 70.7122C152.356 67.4554 158.777 61.3676 161.79 51.6769C167.147 34.4597 162.386 18.9719 154.739 2.8219C145.803 9.92149 138.89 17.4249 133.866 26.6829Z" fill="url(#paint28_linear_23_2)"/>
<path opacity="0.65" d="M112.75 27.6785C110.041 36.8281 109.628 45.9443 113.032 54.9797C115.336 60.9933 119.744 65.9663 125.438 68.9747C126.326 69.363 127.289 69.5493 128.257 69.5199C129.226 69.4906 130.176 69.2465 131.039 68.8051C139.307 63.7175 144.323 56.4253 145.255 46.3216C146.915 28.3672 139.038 14.2073 128.202 0C120.941 8.80123 115.74 17.5782 112.75 27.6785Z" fill="url(#paint29_linear_23_2)"/>
</mask>
<g mask="url(#mask0_23_2)">
<rect width="256" height="256" fill="currentColor"/>
</g>
<defs>
<linearGradient id="paint0_linear_23_2" x1="0.836058" y1="255.675" x2="256.947" y2="-0.436097" gradientUnits="userSpaceOnUse">
<stop stop-color="#0A00B2"/>
<stop offset="0.5" stop-color="#FF0000"/>
<stop offset="1" stop-color="#FFFC00"/>
</linearGradient>
<linearGradient id="paint1_linear_23_2" x1="0.836123" y1="255.675" x2="256.948" y2="-0.436062" gradientUnits="userSpaceOnUse">
<stop stop-color="#0A00B2"/>
<stop offset="0.5" stop-color="#FF0000"/>
<stop offset="1" stop-color="#FFFC00"/>
</linearGradient>
<linearGradient id="paint2_linear_23_2" x1="0.836155" y1="255.675" x2="256.948" y2="-0.43604" gradientUnits="userSpaceOnUse">
<stop stop-color="#0A00B2"/>
<stop offset="0.5" stop-color="#FF0000"/>
<stop offset="1" stop-color="#FFFC00"/>
</linearGradient>
<linearGradient id="paint3_linear_23_2" x1="0.836219" y1="255.675" x2="256.948" y2="-0.436107" gradientUnits="userSpaceOnUse">
<stop stop-color="#0A00B2"/>
<stop offset="0.5" stop-color="#FF0000"/>
<stop offset="1" stop-color="#FFFC00"/>
</linearGradient>
<linearGradient id="paint4_linear_23_2" x1="0.836085" y1="255.675" x2="256.947" y2="-0.436128" gradientUnits="userSpaceOnUse">
<stop stop-color="#0A00B2"/>
<stop offset="0.5" stop-color="#FF0000"/>
<stop offset="1" stop-color="#FFFC00"/>
</linearGradient>
<linearGradient id="paint5_linear_23_2" x1="0.836124" y1="255.675" x2="256.948" y2="-0.435982" gradientUnits="userSpaceOnUse">
<stop stop-color="#0A00B2"/>
<stop offset="0.5" stop-color="#FF0000"/>
<stop offset="1" stop-color="#FFFC00"/>
</linearGradient>
<linearGradient id="paint6_linear_23_2" x1="0.836278" y1="255.675" x2="256.948" y2="-0.43608" gradientUnits="userSpaceOnUse">
<stop stop-color="#0A00B2"/>
<stop offset="0.5" stop-color="#FF0000"/>
<stop offset="1" stop-color="#FFFC00"/>
</linearGradient>
<linearGradient id="paint7_linear_23_2" x1="0.836109" y1="255.675" x2="256.948" y2="-0.436065" gradientUnits="userSpaceOnUse">
<stop stop-color="#0A00B2"/>
<stop offset="0.5" stop-color="#FF0000"/>
<stop offset="1" stop-color="#FFFC00"/>
</linearGradient>
<linearGradient id="paint8_linear_23_2" x1="0.836217" y1="255.675" x2="256.948" y2="-0.436135" gradientUnits="userSpaceOnUse">
<stop stop-color="#0A00B2"/>
<stop offset="0.5" stop-color="#FF0000"/>
<stop offset="1" stop-color="#FFFC00"/>
</linearGradient>
<linearGradient id="paint9_linear_23_2" x1="0.836177" y1="255.675" x2="256.948" y2="-0.436034" gradientUnits="userSpaceOnUse">
<stop stop-color="#0A00B2"/>
<stop offset="0.5" stop-color="#FF0000"/>
<stop offset="1" stop-color="#FFFC00"/>
</linearGradient>
<linearGradient id="paint10_linear_23_2" x1="0.836313" y1="255.675" x2="256.948" y2="-0.435979" gradientUnits="userSpaceOnUse">
<stop stop-color="#0A00B2"/>
<stop offset="0.5" stop-color="#FF0000"/>
<stop offset="1" stop-color="#FFFC00"/>
</linearGradient>
<linearGradient id="paint11_linear_23_2" x1="0.836011" y1="255.675" x2="256.947" y2="-0.436116" gradientUnits="userSpaceOnUse">
<stop stop-color="#0A00B2"/>
<stop offset="0.5" stop-color="#FF0000"/>
<stop offset="1" stop-color="#FFFC00"/>
</linearGradient>
<linearGradient id="paint12_linear_23_2" x1="0.836107" y1="255.675" x2="256.947" y2="-0.43605" gradientUnits="userSpaceOnUse">
<stop stop-color="#0A00B2"/>
<stop offset="0.5" stop-color="#FF0000"/>
<stop offset="1" stop-color="#FFFC00"/>
</linearGradient>
<linearGradient id="paint13_linear_23_2" x1="0.836086" y1="255.675" x2="256.947" y2="-0.436087" gradientUnits="userSpaceOnUse">
<stop stop-color="#0A00B2"/>
<stop offset="0.5" stop-color="#FF0000"/>
<stop offset="1" stop-color="#FFFC00"/>
</linearGradient>
<linearGradient id="paint14_linear_23_2" x1="0.836044" y1="255.675" x2="256.947" y2="-0.436059" gradientUnits="userSpaceOnUse">
<stop stop-color="#0A00B2"/>
<stop offset="0.5" stop-color="#FF0000"/>
<stop offset="1" stop-color="#FFFC00"/>
</linearGradient>
<linearGradient id="paint15_linear_23_2" x1="0.835986" y1="255.675" x2="256.947" y2="-0.436211" gradientUnits="userSpaceOnUse">
<stop stop-color="#0A00B2"/>
<stop offset="0.5" stop-color="#FF0000"/>
<stop offset="1" stop-color="#FFFC00"/>
</linearGradient>
<linearGradient id="paint16_linear_23_2" x1="0.836081" y1="255.675" x2="256.947" y2="-0.436146" gradientUnits="userSpaceOnUse">
<stop stop-color="#0A00B2"/>
<stop offset="0.5" stop-color="#FF0000"/>
<stop offset="1" stop-color="#FFFC00"/>
</linearGradient>
<linearGradient id="paint17_linear_23_2" x1="0.836022" y1="255.675" x2="256.947" y2="-0.43614" gradientUnits="userSpaceOnUse">
<stop stop-color="#0A00B2"/>
<stop offset="0.5" stop-color="#FF0000"/>
<stop offset="1" stop-color="#FFFC00"/>
</linearGradient>
<linearGradient id="paint18_linear_23_2" x1="0.836081" y1="255.675" x2="256.947" y2="-0.436066" gradientUnits="userSpaceOnUse">
<stop stop-color="#0A00B2"/>
<stop offset="0.5" stop-color="#FF0000"/>
<stop offset="1" stop-color="#FFFC00"/>
</linearGradient>
<linearGradient id="paint19_linear_23_2" x1="0.836354" y1="255.675" x2="256.948" y2="-0.436023" gradientUnits="userSpaceOnUse">
<stop stop-color="#0A00B2"/>
<stop offset="0.5" stop-color="#FF0000"/>
<stop offset="1" stop-color="#FFFC00"/>
</linearGradient>
<linearGradient id="paint20_linear_23_2" x1="0.836167" y1="255.675" x2="256.948" y2="-0.436125" gradientUnits="userSpaceOnUse">
<stop stop-color="#0A00B2"/>
<stop offset="0.5" stop-color="#FF0000"/>
<stop offset="1" stop-color="#FFFC00"/>
</linearGradient>
<linearGradient id="paint21_linear_23_2" x1="0.836091" y1="255.675" x2="256.948" y2="-0.435985" gradientUnits="userSpaceOnUse">
<stop stop-color="#0A00B2"/>
<stop offset="0.5" stop-color="#FF0000"/>
<stop offset="1" stop-color="#FFFC00"/>
</linearGradient>
<linearGradient id="paint22_linear_23_2" x1="0.836075" y1="255.675" x2="256.947" y2="-0.436041" gradientUnits="userSpaceOnUse">
<stop stop-color="#0A00B2"/>
<stop offset="0.5" stop-color="#FF0000"/>
<stop offset="1" stop-color="#FFFC00"/>
</linearGradient>
<linearGradient id="paint23_linear_23_2" x1="0.836036" y1="255.675" x2="256.947" y2="-0.436131" gradientUnits="userSpaceOnUse">
<stop stop-color="#0A00B2"/>
<stop offset="0.5" stop-color="#FF0000"/>
<stop offset="1" stop-color="#FFFC00"/>
</linearGradient>
<linearGradient id="paint24_linear_23_2" x1="0.836185" y1="255.675" x2="256.948" y2="-0.436012" gradientUnits="userSpaceOnUse">
<stop stop-color="#0A00B2"/>
<stop offset="0.5" stop-color="#FF0000"/>
<stop offset="1" stop-color="#FFFC00"/>
</linearGradient>
<linearGradient id="paint25_linear_23_2" x1="0.836116" y1="255.675" x2="256.948" y2="-0.435987" gradientUnits="userSpaceOnUse">
<stop stop-color="#0A00B2"/>
<stop offset="0.5" stop-color="#FF0000"/>
<stop offset="1" stop-color="#FFFC00"/>
</linearGradient>
<linearGradient id="paint26_linear_23_2" x1="0.836177" y1="255.675" x2="256.948" y2="-0.436035" gradientUnits="userSpaceOnUse">
<stop stop-color="#0A00B2"/>
<stop offset="0.5" stop-color="#FF0000"/>
<stop offset="1" stop-color="#FFFC00"/>
</linearGradient>
<linearGradient id="paint27_linear_23_2" x1="0.836115" y1="255.675" x2="256.948" y2="-0.436131" gradientUnits="userSpaceOnUse">
<stop stop-color="#0A00B2"/>
<stop offset="0.5" stop-color="#FF0000"/>
<stop offset="1" stop-color="#FFFC00"/>
</linearGradient>
<linearGradient id="paint28_linear_23_2" x1="0.835983" y1="255.675" x2="256.947" y2="-0.435967" gradientUnits="userSpaceOnUse">
<stop stop-color="#0A00B2"/>
<stop offset="0.5" stop-color="#FF0000"/>
<stop offset="1" stop-color="#FFFC00"/>
</linearGradient>
<linearGradient id="paint29_linear_23_2" x1="0.836018" y1="255.675" x2="256.947" y2="-0.436107" gradientUnits="userSpaceOnUse">
<stop stop-color="#0A00B2"/>
<stop offset="0.5" stop-color="#FF0000"/>
<stop offset="1" stop-color="#FFFC00"/>
</linearGradient>
</defs>
</svg>